<?xml version="1.0" encoding="UTF-8"?>
<svg width="36px" height="36px" viewBox="0 0 36 36" version="1.1" xmlns="http://www.w3.org/2000/svg" xmlns:xlink="http://www.w3.org/1999/xlink">
    <title>Close Icon</title>
    <g id="UPDATE" stroke="none" stroke-width="1" fill="none" fill-rule="evenodd">
        <g id="Connect-Modal" transform="translate(-368.000000, -324.000000)">
            <g id="Modal-/-Page-Overlay-/-Large---Wide---Light" transform="translate(348.000000, 304.000000)">
                <g id="Close-Icon" transform="translate(20.000000, 20.000000)">
                    <g id="Icon-Scrim-Color" fill="#E8E8ED">
                        <circle id="Oval" cx="18" cy="18" r="18"></circle>
                    </g>
                    <g id="Icon-Color" transform="translate(11.358969, 11.366395)" fill="#000000" fill-opacity="0.56">
                        <path d="M8.76213148,6.63950512 L12.8401315,2.58450512 C13.4271315,2.00050512 13.4301315,1.05050512 12.8451315,0.463505119 C12.2621315,-0.124494881 11.3111315,-0.126494881 10.7241315,0.457505119 L6.64713148,4.51250512 L2.60113148,0.442505119 C2.01513148,-0.145494881 1.06613148,-0.147494881 0.479131485,0.436505119 C-0.107868515,1.02050512 -0.110868515,1.96950512 0.473131485,2.55750512 L4.52013148,6.62750512 L0.442131485,10.6825051 C-0.144868515,11.2665051 -0.147868515,12.2165051 0.436131485,12.8035051 C0.729131485,13.0985051 1.11513148,13.2455051 1.50013148,13.2455051 C1.88213148,13.2455051 2.26513148,13.1005051 2.55713148,12.8095051 L6.63513148,8.75450512 L10.6811315,12.8255051 C10.9741315,13.1195051 11.3601315,13.2675051 11.7451315,13.2675051 C12.1271315,13.2675051 12.5101315,13.1215051 12.8031315,12.8305051 C13.3901315,12.2465051 13.3931315,11.2975051 12.8091315,10.7095051 L8.76213148,6.63950512 Z" id="Fill-2"></path>
                    </g>
                </g>
            </g>
        </g>
    </g>
</svg>